<mxfile host="app.diagrams.net" agent="Mozilla/5.0 (Windows NT 10.0; Win64; x64) AppleWebKit/537.36 (KHTML, like Gecko) Chrome/129.0.0.0 Safari/537.36" version="24.7.17">
  <diagram name="Page-1" id="hPk9fVcAVYvqEXnjnWeb">
    <mxGraphModel dx="1195" dy="622" grid="1" gridSize="10" guides="1" tooltips="1" connect="1" arrows="1" fold="1" page="1" pageScale="1" pageWidth="850" pageHeight="1100" math="0" shadow="0">
      <root>
        <mxCell id="0" />
        <mxCell id="1" parent="0" />
        <mxCell id="FVs2Trnx0y5SHjtWqqzk-2" value="" style="rounded=1;whiteSpace=wrap;html=1;" vertex="1" parent="1">
          <mxGeometry x="35" y="1160" width="780" height="660" as="geometry" />
        </mxCell>
        <mxCell id="FVs2Trnx0y5SHjtWqqzk-9" style="edgeStyle=orthogonalEdgeStyle;rounded=0;orthogonalLoop=1;jettySize=auto;html=1;" edge="1" parent="1" target="FVs2Trnx0y5SHjtWqqzk-13">
          <mxGeometry relative="1" as="geometry">
            <mxPoint x="227.90999999999994" y="660" as="targetPoint" />
            <mxPoint x="227.9107692781093" y="493.3399999999999" as="sourcePoint" />
          </mxGeometry>
        </mxCell>
        <mxCell id="FVs2Trnx0y5SHjtWqqzk-10" value="User clicks &#39;previous searches&#39; button" style="edgeLabel;html=1;align=center;verticalAlign=middle;resizable=0;points=[];" vertex="1" connectable="0" parent="FVs2Trnx0y5SHjtWqqzk-9">
          <mxGeometry x="-0.1366" y="3" relative="1" as="geometry">
            <mxPoint x="-101" as="offset" />
          </mxGeometry>
        </mxCell>
        <mxCell id="FVs2Trnx0y5SHjtWqqzk-4" value="" style="html=1;whiteSpace=wrap;aspect=fixed;shape=isoRectangle;rotation=-90;" vertex="1" parent="1">
          <mxGeometry x="203.33" y="463.34" width="50" height="30" as="geometry" />
        </mxCell>
        <mxCell id="FVs2Trnx0y5SHjtWqqzk-5" value="" style="ellipse;html=1;shape=startState;fillColor=#000000;strokeColor=#ff0000;" vertex="1" parent="1">
          <mxGeometry x="150" y="410" width="30" height="30" as="geometry" />
        </mxCell>
        <mxCell id="FVs2Trnx0y5SHjtWqqzk-6" value="" style="edgeStyle=orthogonalEdgeStyle;html=1;verticalAlign=bottom;endArrow=open;endSize=8;strokeColor=#ff0000;rounded=0;entryX=0.807;entryY=0.289;entryDx=0;entryDy=0;entryPerimeter=0;" edge="1" parent="1">
          <mxGeometry relative="1" as="geometry">
            <mxPoint x="222.0000000000001" y="463.34000000000003" as="targetPoint" />
            <mxPoint x="180" y="425.35" as="sourcePoint" />
          </mxGeometry>
        </mxCell>
        <mxCell id="FVs2Trnx0y5SHjtWqqzk-8" value="User clicks on the search bar" style="html=1;verticalAlign=bottom;endArrow=block;curved=0;rounded=0;" edge="1" parent="1" source="FVs2Trnx0y5SHjtWqqzk-4" target="FVs2Trnx0y5SHjtWqqzk-14">
          <mxGeometry width="80" relative="1" as="geometry">
            <mxPoint x="380" y="480" as="sourcePoint" />
            <mxPoint x="460" y="480" as="targetPoint" />
          </mxGeometry>
        </mxCell>
        <mxCell id="FVs2Trnx0y5SHjtWqqzk-16" style="edgeStyle=orthogonalEdgeStyle;rounded=0;orthogonalLoop=1;jettySize=auto;html=1;" edge="1" parent="1" source="FVs2Trnx0y5SHjtWqqzk-13" target="FVs2Trnx0y5SHjtWqqzk-15">
          <mxGeometry relative="1" as="geometry" />
        </mxCell>
        <mxCell id="FVs2Trnx0y5SHjtWqqzk-13" value="User accesses previous searches" style="rounded=1;whiteSpace=wrap;html=1;" vertex="1" parent="1">
          <mxGeometry x="168.33" y="670" width="120" height="60" as="geometry" />
        </mxCell>
        <mxCell id="FVs2Trnx0y5SHjtWqqzk-17" style="edgeStyle=orthogonalEdgeStyle;rounded=0;orthogonalLoop=1;jettySize=auto;html=1;" edge="1" parent="1" source="FVs2Trnx0y5SHjtWqqzk-14" target="FVs2Trnx0y5SHjtWqqzk-15">
          <mxGeometry relative="1" as="geometry" />
        </mxCell>
        <mxCell id="FVs2Trnx0y5SHjtWqqzk-14" value="User enters a news story to search" style="rounded=1;whiteSpace=wrap;html=1;" vertex="1" parent="1">
          <mxGeometry x="460" y="448.34000000000003" width="120" height="60" as="geometry" />
        </mxCell>
        <mxCell id="FVs2Trnx0y5SHjtWqqzk-19" style="edgeStyle=orthogonalEdgeStyle;rounded=0;orthogonalLoop=1;jettySize=auto;html=1;entryX=0;entryY=0.5;entryDx=0;entryDy=0;" edge="1" parent="1" source="FVs2Trnx0y5SHjtWqqzk-15" target="FVs2Trnx0y5SHjtWqqzk-18">
          <mxGeometry relative="1" as="geometry" />
        </mxCell>
        <mxCell id="FVs2Trnx0y5SHjtWqqzk-15" value="" style="html=1;whiteSpace=wrap;aspect=fixed;shape=isoRectangle;rotation=-90;" vertex="1" parent="1">
          <mxGeometry x="495" y="685" width="50" height="30" as="geometry" />
        </mxCell>
        <mxCell id="FVs2Trnx0y5SHjtWqqzk-21" style="edgeStyle=orthogonalEdgeStyle;rounded=0;orthogonalLoop=1;jettySize=auto;html=1;exitX=0.25;exitY=1;exitDx=0;exitDy=0;entryX=0.25;entryY=0;entryDx=0;entryDy=0;" edge="1" parent="1" source="FVs2Trnx0y5SHjtWqqzk-18" target="FVs2Trnx0y5SHjtWqqzk-20">
          <mxGeometry relative="1" as="geometry" />
        </mxCell>
        <mxCell id="FVs2Trnx0y5SHjtWqqzk-24" value="Citation gets generated" style="edgeLabel;html=1;align=center;verticalAlign=middle;resizable=0;points=[];" vertex="1" connectable="0" parent="FVs2Trnx0y5SHjtWqqzk-21">
          <mxGeometry x="0.0444" relative="1" as="geometry">
            <mxPoint x="-60" as="offset" />
          </mxGeometry>
        </mxCell>
        <mxCell id="FVs2Trnx0y5SHjtWqqzk-18" value="User accesses search results" style="rounded=1;whiteSpace=wrap;html=1;" vertex="1" parent="1">
          <mxGeometry x="610" y="670" width="120" height="60" as="geometry" />
        </mxCell>
        <mxCell id="FVs2Trnx0y5SHjtWqqzk-22" style="edgeStyle=orthogonalEdgeStyle;rounded=0;orthogonalLoop=1;jettySize=auto;html=1;exitX=0.75;exitY=0;exitDx=0;exitDy=0;entryX=0.75;entryY=1;entryDx=0;entryDy=0;" edge="1" parent="1" source="FVs2Trnx0y5SHjtWqqzk-20" target="FVs2Trnx0y5SHjtWqqzk-18">
          <mxGeometry relative="1" as="geometry" />
        </mxCell>
        <mxCell id="FVs2Trnx0y5SHjtWqqzk-23" value="Citation is copied" style="edgeLabel;html=1;align=center;verticalAlign=middle;resizable=0;points=[];" vertex="1" connectable="0" parent="FVs2Trnx0y5SHjtWqqzk-22">
          <mxGeometry x="0.2333" y="-2" relative="1" as="geometry">
            <mxPoint x="48" y="7" as="offset" />
          </mxGeometry>
        </mxCell>
        <mxCell id="FVs2Trnx0y5SHjtWqqzk-20" value="User cites their source" style="rounded=1;whiteSpace=wrap;html=1;" vertex="1" parent="1">
          <mxGeometry x="610" y="790" width="120" height="60" as="geometry" />
        </mxCell>
        <mxCell id="FVs2Trnx0y5SHjtWqqzk-25" value="" style="ellipse;html=1;shape=endState;fillColor=#000000;strokeColor=#ff0000;" vertex="1" parent="1">
          <mxGeometry x="780" y="685" width="30" height="30" as="geometry" />
        </mxCell>
        <mxCell id="FVs2Trnx0y5SHjtWqqzk-27" value="" style="edgeStyle=orthogonalEdgeStyle;html=1;verticalAlign=bottom;endArrow=open;endSize=8;strokeColor=#ff0000;rounded=0;" edge="1" source="FVs2Trnx0y5SHjtWqqzk-18" parent="1" target="FVs2Trnx0y5SHjtWqqzk-25">
          <mxGeometry relative="1" as="geometry">
            <mxPoint x="380" y="900" as="targetPoint" />
            <mxPoint x="380" y="830" as="sourcePoint" />
          </mxGeometry>
        </mxCell>
      </root>
    </mxGraphModel>
  </diagram>
</mxfile>
